<?xml version="1.0" standalone="no"?><!DOCTYPE svg PUBLIC "-//W3C//DTD SVG 1.1//EN" "http://www.w3.org/Graphics/SVG/1.1/DTD/svg11.dtd"><svg t="1721133506236" class="icon" viewBox="0 0 1173 1024" version="1.1" xmlns="http://www.w3.org/2000/svg" p-id="17887" xmlns:xlink="http://www.w3.org/1999/xlink" width="229.1015625" height="200"><path d="M566.325733 0.041459c0 1.818719 73.276789 52.801529 73.276789 100.1469a67.820631 67.820631 0 0 1-73.276789 71.594962 67.820631 67.820631 0 0 1-73.276788-71.536294c0-47.404039 73.276789-101.985176 73.276788-100.205568z" fill="#FFD54F" p-id="17888"></path><path d="M972.525941 156.118868c-1.349372 1.251592 11.342551 89.60615-23.271786 121.893307a67.820631 67.820631 0 0 1-102.337185-4.752137 67.820631 67.820631 0 0 1 2.346734-102.376298c34.653448-32.345826 124.55294-15.977352 123.24268-14.764872z" fill="#FFD54F" p-id="17889"></path><path d="M164.369204 151.875189c1.251592 1.329816 89.60615-11.362107 121.893308 23.271785a67.820631 67.820631 0 0 1-4.752138 102.31763 67.820631 67.820631 0 0 1-102.376298-2.346735c-32.345826-34.653448-15.977352-124.55294-14.764872-123.24268z" fill="#FFD54F" p-id="17890"></path><path d="M8.917592 568.498809c1.799163-0.215117 43.492815-79.202294 90.505732-84.971349a67.859743 67.859743 0 0 1 80.02365 64.026743 67.859743 67.859743 0 0 1-62.090687 81.49036C70.284702 634.833175 7.157541 568.713927 8.917592 568.498809z" fill="#FFD54F" p-id="17891"></path><path d="M170.04048 954.771329c1.134255-1.408041-25.227397-86.7314 3.950336-124.044481a67.840187 67.840187 0 0 1 101.848283-11.264327 67.840187 67.840187 0 0 1 13.689285 101.496273c-29.216846 37.352193-120.583047 35.240132-119.487904 33.832091z" fill="#FFD54F" p-id="17892"></path><path d="M557.447254 536.641887m-279.007191 0a279.007191 279.007191 0 1 0 558.014382 0 279.007191 279.007191 0 1 0-558.014382 0Z" fill="#FFD54F" p-id="17893"></path><path d="M593.606523 634.129154a189.929056 169.923143 0 1 0 379.858111 0 189.929056 169.923143 0 1 0-379.858111 0Z" fill="#C9EAF2" p-id="17894"></path><path d="M413.670646 814.065032a229.901769 209.915412 0 1 0 459.803537 0 229.901769 209.915412 0 1 0-459.803537 0Z" fill="#C9EAF2" p-id="17895"></path><path d="M713.563775 814.065032a229.901769 209.915412 0 1 0 459.803537 0 229.901769 209.915412 0 1 0-459.803537 0Z" fill="#C9EAF2" p-id="17896"></path><path d="M640.678109 1024h322.343556l-16.99427-91.444426-262.658272-42.319448z" fill="#C9EAF2" p-id="17897"></path><path d="M965.876859 944.387028H746.633177a171.683194 171.683194 0 1 1 172.445882-182.869296 96.21612 96.21612 0 0 1 48.988086-13.337275 98.113063 98.113063 0 0 1 0 196.226127z" fill="#FFFFFF" p-id="17898"></path></svg>