<?xml version="1.0" standalone="no"?><!DOCTYPE svg PUBLIC "-//W3C//DTD SVG 1.1//EN" "http://www.w3.org/Graphics/SVG/1.1/DTD/svg11.dtd"><svg t="1721201155695" class="icon" viewBox="0 0 1024 1024" version="1.1" xmlns="http://www.w3.org/2000/svg" p-id="7640" data-spm-anchor-id="a313x.search_index.0.i9.323f3a815eKzSm" xmlns:xlink="http://www.w3.org/1999/xlink" width="200" height="200"><path d="M703.447957 908.290773 703.447957 20.826139c0-11.483124-8.845919-20.826139-19.716157-20.826139L388.432639 0c-10.872235 0-19.716157 9.343015-19.716157 20.826139l0 887.466631c0 11.483124 8.843922 20.826139 19.716157 20.826139l10.095647 0-27.803455 76.864265c-2.521416 6.979312 1.090018 14.687299 8.071327 17.212708 6.981308 2.523413 14.685303-1.090018 17.210712-8.071327l28.689843-79.329782c0.802541-2.213975 0.980218-4.501816 0.634846-6.675864l221.116022 0c-0.347369 2.174048-0.167695 4.459892 0.63285 6.675864l28.69184 79.329782c2.525409 6.981308 10.2314 10.594739 17.206719 8.071327 6.985301-2.525409 10.594739-10.233396 8.075319-17.212708l-27.801458-76.864265 10.480946 0C694.604035 929.116913 703.447957 919.773898 703.447957 908.290773zM683.48425 908.290773c0 0.409256-0.105808 0.696733-0.201633 0.862432L388.879826 909.153206c-0.093829-0.165699-0.199637-0.455173-0.199637-0.862432L388.680189 20.826139c0-0.409256 0.105808-0.696733 0.201633-0.862432l294.404787 0c0.095826 0.165699 0.201633 0.453176 0.201633 0.862432L683.488243 908.290773z" fill="#000000" p-id="7641"></path><path d="M545.241569 521.667635c-1.90853 2.201997-5.23648 2.449547-7.444466 0.541016-2.209982-1.898549-2.449547-5.232488-0.549002-7.434484l136.913099-158.627623c0.08784-0.101815 0.193648-0.177677 0.287477-0.271506L674.448677 296.165586l-129.207108 149.691868c-1.90853 2.20599-5.23648 2.449547-7.444466 0.545009-2.209982-1.898549-2.449547-5.238477-0.549002-7.438477l136.913099-158.625627c0.08784-0.101815 0.193648-0.177677 0.287477-0.271506l0-247.270475L397.709774 32.796378l0 863.520164 276.738903 0L674.448677 450.772518l-129.207108 149.693864c-1.90853 2.201997-5.23648 2.449547-7.444466 0.541016-2.209982-1.898549-2.449547-5.232488-0.549002-7.434484l136.913099-158.627623c0.08784-0.101815 0.193648-0.177677 0.287477-0.271506L674.448677 371.973771 545.241569 521.667635z" fill="#000000" p-id="7642" data-spm-anchor-id="a313x.search_index.0.i8.323f3a815eKzSm" class="selected"></path></svg>