<?xml version="1.0" standalone="no"?><!DOCTYPE svg PUBLIC "-//W3C//DTD SVG 1.1//EN" "http://www.w3.org/Graphics/SVG/1.1/DTD/svg11.dtd"><svg t="1721193782906" class="icon" viewBox="0 0 1024 1024" version="1.1" xmlns="http://www.w3.org/2000/svg" p-id="1660" xmlns:xlink="http://www.w3.org/1999/xlink" width="200" height="200"><path d="M338.569302 941.087355c-61.548625-76.829978 71.124884-226.21215 143.17503-351.247057 119.549719-207.478697 281.873118-157.825711 343.421744-81.004032 111.508649 139.187689-6.360661 267.761829-120.528921 359.22589-114.176558 91.464062-304.519228 149.859326-366.067853 73.025199z" fill="#FFE2D9" p-id="1661"></path><path d="M396.881583 974.51298c-88.269209-16.642277-200.968667-51.018059-211.951491-216.685681-20.260344-305.627054-33.765856-507.28863-14.816647-564.833316 18.770795-56.992848 153.801027-87.713222 153.801027 193.695191 0 64.274622 254.09035 179.625393 69.440326 364.267118" fill="#FFE2D9" p-id="1662"></path><path d="M309.292836 411.173361s107.620887 155.41505 69.390535 221.150176c-38.230351 65.743425-94.891267 195.010474 44.105561 178.413838s69.880136-246.348019 224.054587-271.769916c154.174451-25.417748 96.11112 115.923354 96.11112 115.923354s139.303865-204.458109-68.647836-191.309424-234.921235 208.15501-234.921235 208.15501 60.337071-200.611839-130.092732-260.563038z" fill="#FFFFFF" opacity=".28" p-id="1663"></path><path d="M400.727853 954.128162c-95.71695-18.048842-185.600182-54.478458-195.097606-197.678383l-0.365126-5.518382c-19.169115-289.159042-33.019008-498.081646-15.447319-551.448129 4.501838-13.671479 21.886814-52.15078 40.587073-49.150938 35.17657 5.642856 72.763802 89.762906 72.763802 236.356844 0 26.869954 23.388809 51.918427 52.997208 83.630449 65.295316 69.929926 139.303865 149.187162 22.517486 265.973541a20.745795 20.745795 0 1 0 29.338704 29.330405c145.133434-145.133434 40.80283-256.861988-21.529986-323.626105-18.638022-19.961604-41.83597-44.802619-41.835971-55.312439 0-211.366459-78.966795-272.649538-111.342682-277.848435C196.207507 102.886696 161.840022 151.792834 150.409089 186.504698c-20.098526 61.038278-7.468486 251.546915 13.455723 567.173442l0.365126 5.52668c12.932929 195.002176 164.215416 223.519346 228.809524 235.697128a20.745795 20.745795 0 1 0 7.688391-40.773786z" fill="#6E6E96" p-id="1664"></path><path d="M266.884281 236.497915s176.637998 24.164702 176.637998-96.584124c0-120.744677-205.856376-93.646519-264.326324 32.421529" fill="#FFE2D9" p-id="1665"></path><path d="M264.071152 257.052849c4.406407 0.601628 108.562746 14.198422 164.895878-34.952516 23.426152-20.438757 35.301045-48.088753 35.301045-82.186542 0-48.756768-29.085605-84.286016-77.800881-95.032338C311.537531 28.351204 202.812968 72.112384 160.375369 163.609639a20.745795 20.745795 0 1 0 37.64532 17.455512c32.575048-70.232815 121.640895-108.434122 179.513365-95.66716 30.023315 6.626207 45.246579 24.96549 45.246579 54.5158 0 21.886814-6.900051 38.545687-21.086026 50.922629-35.085289 30.608346-107.176927 28.500573-131.993047 25.106561a20.745795 20.745795 0 0 0-5.630408 41.109868z" fill="#6E6E96" p-id="1666"></path><path d="M186.303464 443.64053s8.285871 448.009595 194.998027 448.009595 453.959489-269.193288 400.207133-395.991588c0 0 126.632333 97.54258 63.316167 219.8017C781.508624 837.715207 482.955887 1051.396897 287.945413 937.295024S186.303464 443.64053 186.303464 443.64053z" fill="#6E6E96" opacity=".15" p-id="1667"></path><path d="M841.356094 495.865995c-31.633188-39.483397-92.957759-79.564273-170.202652-73.651722-55.723206 4.261186-136.930546 35.010604-207.374968 157.269724a887.683529 887.683529 0 0 1-9.567961 16.136079c2.991544 17.646373 5.983087 44.171947 3.738392 71.610336 14.717067-22.517486 29.201781-45.209237 41.777883-67.025515 48.607398-84.352403 108.981811-131.594728 174.592462-136.61521 61.212543-4.680251 110.799143 28.438336 134.660956 58.229298 79.663853 99.442894 43.479037 201.234213-117.305024 330.061451-81.294473 65.116902-193.429645 107.40928-290.93903 102.260173-5.406354 15.451468 0.767594 29.052411-22.675155 35.960762a166.775447 166.775447 0 0 0 29.882244 6.049474c86.576352 9.559662 216.810156-37.491801 309.672484-111.886223 76.32378-61.142007 124.167733-114.778186 150.560533-168.804385 37.475204-76.71795 28.454933-150.589578-26.820164-219.594242z" fill="#6E6E96" p-id="1668"></path><path d="M399.084786 93.658967c44.752829 131.424612-129.810589 32.467169-165.078441 117.524929-21.575627 52.030454 6.526627 69.755662 31.604145 75.688959h-0.00415s35.292747 9.928938 38.379721 108.488061c0 0 26.114807-59.013489-7.754778-105.691528-6.368959-66.80146 93.368526-59.814277 93.368526-59.814276 90.410175-81.045523 9.484978-136.196145 9.484977-136.196145z" fill="#6E6E96" opacity=".15" p-id="1669"></path></svg>